<?xml version="1.0" encoding="UTF-8"?>
<svg id="Layer_2" data-name="Layer 2" xmlns="http://www.w3.org/2000/svg" xmlns:xlink="http://www.w3.org/1999/xlink" viewBox="0 0 1120.35 210.75">
  <defs>
    <linearGradient id="linear-gradient" x1="347.1" y1="174.45" x2="347.1" y2="25.35" gradientUnits="userSpaceOnUse">
      <stop offset="0" stop-color="#707070"/>
      <stop offset=".5" stop-color="#b0b0b0"/>
      <stop offset="1" stop-color="#707070"/>
    </linearGradient>
    <linearGradient id="linear-gradient-2" x1="739.65" x2="739.65" xlink:href="#linear-gradient"/>
    <linearGradient id="linear-gradient-3" x1="0" y1="97.5" x2="49.5" y2="97.5" gradientTransform="translate(-72.75 122.25) rotate(-90)" xlink:href="#linear-gradient"/>
    <linearGradient id="linear-gradient-4" x1="87.6" y1="99.9" x2="130.2" y2="99.9" gradientTransform="translate(9 208.8) rotate(-90)" xlink:href="#linear-gradient"/>
    <linearGradient id="linear-gradient-5" x1="147.56" y1="127.31" x2="147.56" y2="72.49" xlink:href="#linear-gradient"/>
    <linearGradient id="linear-gradient-6" x1="538.75" y1="127.31" x2="538.75" y2="72.49" xlink:href="#linear-gradient"/>
    <linearGradient id="linear-gradient-7" x1="680.1" y1="210.75" x2="680.1" y2="187.12" xlink:href="#linear-gradient"/>
    <linearGradient id="linear-gradient-8" x1="811.05" y1="210.75" x2="811.05" y2="187.12" xlink:href="#linear-gradient"/>
    <linearGradient id="linear-gradient-9" x1="946.54" y1="101.06" x2="996.04" y2="101.06" gradientTransform="translate(870.23 1072.35) rotate(-90)" xlink:href="#linear-gradient"/>
    <linearGradient id="linear-gradient-10" x1="946.35" y1="127.31" x2="946.35" y2="72.49" xlink:href="#linear-gradient"/>
    <linearGradient id="linear-gradient-11" x1="655.5" y1="183.15" x2="705" y2="183.15" xlink:href="#linear-gradient"/>
    <linearGradient id="linear-gradient-12" x1="786.3" y1="183.15" x2="835.8" y2="183.15" xlink:href="#linear-gradient"/>
  </defs>
  <g id="Layer_2-2" data-name="Layer 2">
    <rect x="49.5" y="49.95" width="117.75" height="99.9" style="fill: #31adad;"/>
    <rect x="904.44" y="49.95" width="133.69" height="99.9" style="fill: #31adad;"/>
    <rect x="201.15" y="49.95" width="48.76" height="99.9" style="fill: #31adad;"/>
    <rect x="470.1" y="49.95" width="46.8" height="99.9" style="fill: #31adad;"/>
    <rect x="567.3" y="49.95" width="46.8" height="98.7" style="fill: #31adad;"/>
    <rect x="853.22" y="49.95" width="46.8" height="99.9" style="fill: #31adad;"/>
    <rect x="245.7" y="25.35" width="202.8" height="149.1" rx="8.85" ry="8.85" style="fill: url(#linear-gradient);"/>
    <rect x="628.5" y="25.35" width="222.3" height="149.1" rx="9.27" ry="9.27" style="fill: url(#linear-gradient-2);"/>
    <rect x="-26.4" y="72.75" width="102.3" height="49.5" rx="3.62" ry="3.62" transform="translate(122.25 72.75) rotate(90)" style="fill: url(#linear-gradient-3);"/>
    <rect x="57.75" y="78.6" width="102.3" height="42.6" rx="3.36" ry="3.36" transform="translate(208.8 -9) rotate(90)" style="fill: url(#linear-gradient-4);"/>
    <path d="M245.7,127.31H49.2c-5.33-17.89-5.33-36.94,0-54.82h0s196.5,0,196.5,0h0c5.61,17.84,5.61,36.98,0,54.82h0Z" style="fill: url(#linear-gradient-5);"/>
    <path d="M629.7,127.31h-182.09c-4.94-17.89-4.94-36.94,0-54.82h0s182.09,0,182.09,0h0c5.2,17.84,5.2,36.98,0,54.82h0Z" style="fill: url(#linear-gradient-6);"/>
    <path d="M714.91,210.75h-69.69c-1.89-7.71-1.89-15.92,0-23.62h0s69.69,0,69.69,0h0c1.99,7.69,1.99,15.94,0,23.62h0Z" style="fill: url(#linear-gradient-7);"/>
    <path d="M845.86,210.75h-69.69c-1.89-7.71-1.89-15.92,0-23.62h0s69.69,0,69.69,0h0c1.99,7.69,1.99,15.94,0,23.62h0Z" style="fill: url(#linear-gradient-8);"/>
    <rect x="920.14" y="76.31" width="102.3" height="49.5" rx="3.62" ry="3.62" transform="translate(1072.35 -870.23) rotate(90)" style="fill: url(#linear-gradient-9);"/>
    <path d="M1042,127.31h-191.5c-5.2-17.89-5.2-36.94,0-54.82h0s191.5,0,191.5,0h0c5.47,17.84,5.47,36.98,0,54.82h0Z" style="fill: url(#linear-gradient-10);"/>
    <path d="M655.5,193.05v-18.6h0c16.3-3.65,33.2-3.65,49.5,0h0v18.6h0c-16.44,2.04-33.06,2.04-49.5,0h0Z" style="fill: url(#linear-gradient-11);"/>
    <path d="M786.3,193.05v-18.6h0c16.3-3.65,33.2-3.65,49.5,0h0v18.6h0c-16.44,2.04-33.06,2.04-49.5,0h0Z" style="fill: url(#linear-gradient-12);"/>
    <text transform="translate(265.58 109.58)" style="font-family: MyriadPro-Regular, &apos;Myriad Pro&apos;; font-size: 21.85px;"><tspan x="0" y="0">STE</tspan><tspan x="32.39" y="0" style="letter-spacing: 0em;">M</tspan><tspan x="49.74" y="0" style="letter-spacing: 0em;">A</tspan><tspan x="63.03" y="0">M</tspan><tspan x="80.6" y="0" style="letter-spacing: -.04em;"> </tspan><tspan x="84.34" y="0">TURBINE</tspan></text>
    <text transform="translate(60.36 34.35)" style="fill: #3230a5; font-family: MicrosoftSansSerif, &apos;Microsoft Sans Serif&apos;; font-size: 21.85px;"><tspan x="0" y="0">A</tspan></text>
    <text transform="translate(485.76 34.35)" style="fill: #3230a5; font-family: MicrosoftSansSerif, &apos;Microsoft Sans Serif&apos;; font-size: 21.85px;"><tspan x="0" y="0">A</tspan></text>
    <text transform="translate(864.6 45.85)" style="fill: #3230a5; font-family: MicrosoftSansSerif, &apos;Microsoft Sans Serif&apos;; font-size: 21.85px;"><tspan x="0" y="0">A</tspan></text>
    <text transform="translate(1070.4 72.49)" style="fill: #3230a5; font-family: MicrosoftSansSerif, &apos;Microsoft Sans Serif&apos;; font-size: 21.85px;"><tspan x="0" y="0">A</tspan></text>
    <text transform="translate(74.96 174.45)" style="fill: #3230a5; font-family: MicrosoftSansSerif, &apos;Microsoft Sans Serif&apos;; font-size: 21.85px;"><tspan x="0" y="0">B</tspan></text>
    <text transform="translate(475.36 174.45)" style="fill: #3230a5; font-family: MicrosoftSansSerif, &apos;Microsoft Sans Serif&apos;; font-size: 21.85px;"><tspan x="0" y="0">B</tspan></text>
    <text transform="translate(856.7 174.45)" style="fill: #3230a5; font-family: MicrosoftSansSerif, &apos;Microsoft Sans Serif&apos;; font-size: 21.85px;"><tspan x="0" y="0">B</tspan></text>
    <text transform="translate(1070.38 130.69)" style="fill: #3230a5; font-family: MicrosoftSansSerif, &apos;Microsoft Sans Serif&apos;; font-size: 21.85px;"><tspan x="0" y="0">B</tspan></text>
    <text transform="translate(139.7 34.35)" style="fill: #3230a5; font-family: MicrosoftSansSerif, &apos;Microsoft Sans Serif&apos;; font-size: 21.85px;"><tspan x="0" y="0">C</tspan></text>
    <text transform="translate(584.05 34.35)" style="fill: #3230a5; font-family: MicrosoftSansSerif, &apos;Microsoft Sans Serif&apos;; font-size: 21.85px;"><tspan x="0" y="0">C</tspan></text>
    <text transform="translate(917.55 45.85)" style="fill: #3230a5; font-family: MicrosoftSansSerif, &apos;Microsoft Sans Serif&apos;; font-size: 21.85px;"><tspan x="0" y="0">C</tspan></text>
    <text transform="translate(225.53 34.35)" style="fill: #3230a5; font-family: MicrosoftSansSerif, &apos;Microsoft Sans Serif&apos;; font-size: 21.85px;"><tspan x="0" y="0">E</tspan></text>
    <text transform="translate(225.53 174.45)" style="fill: #3230a5; font-family: MicrosoftSansSerif, &apos;Microsoft Sans Serif&apos;; font-size: 21.85px;"><tspan x="0" y="0">F</tspan></text>
    <text transform="translate(1024.48 46.12)" style="fill: #3230a5; font-family: MicrosoftSansSerif, &apos;Microsoft Sans Serif&apos;; font-size: 21.85px;"><tspan x="0" y="0">E</tspan></text>
    <text transform="translate(1022.73 170.58)" style="fill: #3230a5; font-family: MicrosoftSansSerif, &apos;Microsoft Sans Serif&apos;; font-size: 21.85px;"><tspan x="0" y="0">F</tspan></text>
    <text transform="translate(154.36 174.45)" style="fill: #3230a5; font-family: MicrosoftSansSerif, &apos;Microsoft Sans Serif&apos;; font-size: 21.85px;"><tspan x="0" y="0">D</tspan></text>
    <text transform="translate(596.45 174.45)" style="fill: #3230a5; font-family: MicrosoftSansSerif, &apos;Microsoft Sans Serif&apos;; font-size: 21.85px;"><tspan x="0" y="0">D</tspan></text>
    <text transform="translate(921.05 174.45)" style="fill: #3230a5; font-family: MicrosoftSansSerif, &apos;Microsoft Sans Serif&apos;; font-size: 21.85px;"><tspan x="0" y="0">D</tspan></text>
    <text transform="translate(705.99 101.06)" style="font-size: 21.85px;"><tspan x="0" y="0" style="font-family: MyriadPro-Regular, &apos;Myriad Pro&apos;;">380-</tspan><tspan x="40.34" y="0" style="font-family: MicrosoftSansSerif, &apos;Microsoft Sans Serif&apos;;">C1</tspan></text>
    <g>
      <rect x="1062.75" y="75.7" width="33.3" height="9.45" style="fill: #31adad;"/>
      <rect x="1062.75" y="101.72" width="33.3" height="9.45" style="fill: #31adad;"/>
      <line x1="1062.75" y1="80.43" x2="1041.6" y2="80.43" style="fill: none; stroke: #a9a9a9; stroke-miterlimit: 10; stroke-width: 3px;"/>
      <line x1="1062.75" y1="106.45" x2="1041.6" y2="106.45" style="fill: none; stroke: #a9a9a9; stroke-miterlimit: 10; stroke-width: 3px;"/>
    </g>
    <polyline points="653.7 34.35 653.7 1.5 818.85 1.5 818.85 34.35" style="fill: none; stroke: #4a9b4d; stroke-miterlimit: 10; stroke-width: 3px;"/>
    <g>
      <line x1="493.5" y1="149.85" x2="493.5" y2="153.35" style="fill: none; stroke: #000; stroke-miterlimit: 10; stroke-width: 2px;"/>
      <line x1="493.5" y1="162.12" x2="493.5" y2="175.26" style="fill: none; stroke: #000; stroke-dasharray: 8.77 8.77; stroke-miterlimit: 10; stroke-width: 2px;"/>
      <polyline points="493.5 179.65 493.5 183.15 497 183.15" style="fill: none; stroke: #000; stroke-miterlimit: 10; stroke-width: 2px;"/>
      <line x1="503.94" y1="183.15" x2="583.73" y2="183.15" style="fill: none; stroke: #000; stroke-dasharray: 6.94 6.94; stroke-miterlimit: 10; stroke-width: 2px;"/>
      <polyline points="587.2 183.15 590.7 183.15 590.7 179.65" style="fill: none; stroke: #000; stroke-miterlimit: 10; stroke-width: 2px;"/>
      <line x1="590.7" y1="174.15" x2="590.7" y2="154.9" style="fill: none; stroke: #000; stroke-dasharray: 5.5 5.5; stroke-miterlimit: 10; stroke-width: 2px;"/>
      <line x1="590.7" y1="152.15" x2="590.7" y2="148.65" style="fill: none; stroke: #000; stroke-miterlimit: 10; stroke-width: 2px;"/>
    </g>
    <g>
      <line x1="70.63" y1="149.85" x2="70.63" y2="154.25" style="fill: none; stroke: #000; stroke-miterlimit: 10; stroke-width: 2.51px;"/>
      <line x1="70.63" y1="162.41" x2="70.63" y2="174.67" style="fill: none; stroke: #000; stroke-dasharray: 8.17 8.17; stroke-miterlimit: 10; stroke-width: 2.51px;"/>
      <polyline points="70.63 178.75 70.63 183.15 75.02 183.15" style="fill: none; stroke: #000; stroke-miterlimit: 10; stroke-width: 2.51px;"/>
      <line x1="83.53" y1="183.15" x2="215.31" y2="183.15" style="fill: none; stroke: #000; stroke-dasharray: 8.5 8.5; stroke-miterlimit: 10; stroke-width: 2.51px;"/>
      <polyline points="219.56 183.15 223.95 183.15 223.95 178.75" style="fill: none; stroke: #000; stroke-miterlimit: 10; stroke-width: 2.51px;"/>
      <line x1="223.95" y1="170.18" x2="223.95" y2="157.33" style="fill: none; stroke: #000; stroke-dasharray: 8.57 8.57; stroke-miterlimit: 10; stroke-width: 2.51px;"/>
      <line x1="223.95" y1="153.05" x2="223.95" y2="148.65" style="fill: none; stroke: #000; stroke-miterlimit: 10; stroke-width: 2.51px;"/>
    </g>
    <g>
      <line x1="877.06" y1="149.85" x2="877.06" y2="154.05" style="fill: none; stroke: #000; stroke-miterlimit: 10; stroke-width: 2.4px;"/>
      <line x1="877.06" y1="162.35" x2="877.06" y2="174.79" style="fill: none; stroke: #000; stroke-dasharray: 8.3 8.3; stroke-miterlimit: 10; stroke-width: 2.4px;"/>
      <polyline points="877.06 178.94 877.06 183.15 881.27 183.15" style="fill: none; stroke: #000; stroke-miterlimit: 10; stroke-width: 2.4px;"/>
      <line x1="890.05" y1="183.15" x2="1008.61" y2="183.15" style="fill: none; stroke: #000; stroke-dasharray: 8.78 8.78; stroke-miterlimit: 10; stroke-width: 2.4px;"/>
      <polyline points="1013.01 183.15 1017.21 183.15 1017.21 178.94" style="fill: none; stroke: #000; stroke-miterlimit: 10; stroke-width: 2.4px;"/>
      <line x1="1017.21" y1="170.25" x2="1017.21" y2="157.2" style="fill: none; stroke: #000; stroke-dasharray: 8.7 8.7; stroke-miterlimit: 10; stroke-width: 2.4px;"/>
      <line x1="1017.21" y1="152.85" x2="1017.21" y2="148.65" style="fill: none; stroke: #000; stroke-miterlimit: 10; stroke-width: 2.4px;"/>
    </g>
    <line x1="947.14" y1="183.15" x2="947.14" y2="210.75" style="fill: none; stroke: #000; stroke-dasharray: 8.41; stroke-miterlimit: 10; stroke-width: 2.4px;"/>
    <line x1="542.1" y1="183.15" x2="542.1" y2="210.75" style="fill: none; stroke: #000; stroke-dasharray: 8.41; stroke-miterlimit: 10; stroke-width: 2.4px;"/>
    <line x1="147.29" y1="149.85" x2="147.29" y2="210.75" style="fill: none; stroke: #000; stroke-dasharray: 8.41; stroke-miterlimit: 10; stroke-width: 2.4px;"/>
    <line x1="183.6" y1="1.5" x2="183.6" y2="72.49" style="fill: none; stroke: #000; stroke-dasharray: 8.41; stroke-miterlimit: 10; stroke-width: 2.4px;"/>
    <line x1="448.5" y1="1.5" x2="448.5" y2="72.49" style="fill: none; stroke: #000; stroke-dasharray: 8.41; stroke-miterlimit: 10; stroke-width: 2.4px;"/>
    <line x1="621.3" y1="1.5" x2="621.3" y2="72.49" style="fill: none; stroke: #000; stroke-dasharray: 8.41; stroke-miterlimit: 10; stroke-width: 2.4px;"/>
    <polyline points="902.1 72.49 902.1 25.35 864.6 25.35 864.6 1.5" style="fill: none; stroke: #000; stroke-dasharray: 8.41; stroke-miterlimit: 10; stroke-width: 2.4px;"/>
    <line x1="1096.05" y1="80.43" x2="1120.35" y2="80.43" style="fill: none; stroke: #000; stroke-dasharray: 8.41; stroke-miterlimit: 10; stroke-width: 2.4px;"/>
    <line x1="1096.05" y1="106.45" x2="1120.35" y2="106.45" style="fill: none; stroke: #000; stroke-dasharray: 8.41; stroke-miterlimit: 10; stroke-width: 2.4px;"/>
  </g>
</svg>